External Loads File
version=1
nRows=85
nColumns=13
Range=5.000000e-03-10 seconds
endheader
time 	forceRightX 	forceRightY 	forceRightZ 	pointRightX 	pointRightY 	pointRightZ 	forceLeftX 	forceLeftY 	forceLeftZ 	pointLeftX 	pointLeftY 	pointLeftZ 		
0.005000 101.868290 191.631617 -0.000000 0.153005 0.239811 -0.124377 -52.767915 105.796929 -0.000000 0.453316 0.407403 -0.367888
0.010000 100.984430 190.915682 -0.000000 0.153011 0.239844 -0.124385 -52.214587 105.512587 -0.000000 0.453329 0.407369 -0.367888
0.015000 100.232179 190.275564 -0.000000 0.152999 0.239863 -0.124386 -51.727961 105.270919 -0.000000 0.453336 0.407350 -0.367898
0.020000 99.703017 189.730607 -0.000000 0.152996 0.239887 -0.124383 -51.328583 105.098760 -0.000000 0.453399 0.407326 -0.367842
0.025000 99.332722 189.350026 -0.000000 0.152930 0.240193 -0.124301 -51.083165 104.977343 -0.000000 0.453272 0.407673 -0.367961
0.030000 99.264003 189.062916 -0.000000 0.152918 0.240241 -0.124290 -50.900443 104.946719 -0.000000 0.453264 0.407654 -0.367940
0.035000 99.373150 188.905930 -0.000000 0.152894 0.240262 -0.124282 -50.804632 104.976267 -0.000000 0.453275 0.407666 -0.367934
0.040000 99.623564 188.833112 -0.000000 0.152893 0.240285 -0.124253 -50.760330 105.053611 -0.000000 0.453273 0.407644 -0.367945
0.045000 99.900647 188.810095 -0.000000 0.152905 0.240301 -0.124240 -50.773744 105.143834 -0.000000 0.453278 0.407655 -0.367943
0.050000 100.167485 188.768026 -0.000000 0.152908 0.240307 -0.124241 -50.822115 105.234014 -0.000000 0.453295 0.407628 -0.367948
0.055000 100.370467 188.693972 -0.000000 0.152912 0.240332 -0.124231 -50.928507 105.298221 -0.000000 0.453310 0.407624 -0.367948
0.060000 100.520288 188.591355 -0.000000 0.152913 0.240349 -0.124241 -51.107452 105.316271 -0.000000 0.453311 0.407613 -0.367955
0.065000 100.650090 188.469865 -0.000000 0.152885 0.240363 -0.124251 -51.345709 105.279778 -0.000000 0.453331 0.407605 -0.367962
0.070000 100.746770 188.358236 -0.000000 0.152869 0.240351 -0.124279 -51.611846 105.189079 -0.000000 0.453344 0.407594 -0.367970
0.075000 100.863771 188.248842 -0.000000 0.152837 0.240394 -0.124286 -51.814853 105.073547 -0.000000 0.453349 0.407591 -0.367975
0.080000 100.985581 188.172687 -0.000000 0.152811 0.240396 -0.124310 -51.924253 104.936239 -0.000000 0.453365 0.407573 -0.367962
0.085000 101.125459 188.128629 -0.000000 0.152782 0.240406 -0.124305 -51.928337 104.782101 -0.000000 0.453376 0.407577 -0.367977
0.090000 101.270693 188.100229 -0.000000 0.152788 0.240412 -0.124293 -51.840125 104.616375 -0.000000 0.453394 0.407579 -0.367975
0.095000 101.405890 188.059587 -0.000000 0.152787 0.240406 -0.124273 -51.667480 104.454377 -0.000000 0.453402 0.407576 -0.367969
0.100000 101.523076 187.991079 -0.000000 0.152802 0.240419 -0.124248 -51.422535 104.312434 -0.000000 0.453421 0.407588 -0.367949
0.105000 101.621042 187.902297 -0.000000 0.152816 0.240435 -0.124241 -51.135106 104.197809 -0.000000 0.453417 0.407593 -0.367962
0.110000 101.691120 187.814403 -0.000000 0.152828 0.240420 -0.124220 -50.847099 104.110551 -0.000000 0.453428 0.407590 -0.367951
0.115000 101.729127 187.732093 -0.000000 0.152811 0.240424 -0.124231 -50.586589 104.055799 -0.000000 0.453421 0.407595 -0.367954
0.120000 101.689334 187.667762 -0.000000 0.152812 0.240397 -0.124250 -50.394874 104.028634 -0.000000 0.453407 0.407592 -0.367964
0.125000 101.613671 187.590682 -0.000000 0.152777 0.240403 -0.124290 -50.274864 104.036776 -0.000000 0.453409 0.407597 -0.367957
0.130000 101.476078 187.520453 -0.000000 0.152759 0.240392 -0.124287 -50.277991 104.051595 -0.000000 0.453392 0.407605 -0.367970
0.135000 101.311470 187.447694 -0.000000 0.152769 0.240386 -0.124308 -50.405042 104.053534 -0.000000 0.453384 0.407615 -0.367969
0.140000 101.133356 187.368122 -0.000000 0.152786 0.240376 -0.124295 -50.638843 104.028923 -0.000000 0.453378 0.407632 -0.367965
0.145000 100.984785 187.258594 -0.000000 0.152798 0.240385 -0.124275 -50.931310 103.987752 -0.000000 0.453370 0.407618 -0.367955
0.150000 100.827183 187.151066 -0.000000 0.152829 0.240370 -0.124263 -51.278727 103.925067 -0.000000 0.453351 0.407622 -0.367947
0.155000 100.717035 187.043982 -0.000000 0.152862 0.240375 -0.124246 -51.623979 103.865745 -0.000000 0.453350 0.407626 -0.367945
0.160000 100.673520 186.959520 -0.000000 0.152877 0.240393 -0.124253 -51.928762 103.832274 -0.000000 0.453343 0.407601 -0.367946
0.165000 100.647387 186.934252 -0.000000 0.152878 0.240404 -0.124252 -52.189272 103.837008 -0.000000 0.453334 0.407612 -0.367945
0.170000 100.632032 186.956495 -0.000000 0.152867 0.240393 -0.124261 -52.379154 103.901641 -0.000000 0.453326 0.407604 -0.367957
0.175000 100.632309 187.004707 -0.000000 0.152845 0.240410 -0.124276 -52.484251 104.029660 -0.000000 0.453318 0.407578 -0.367955
0.180000 100.626141 187.073079 -0.000000 0.152826 0.240448 -0.124276 -52.529529 104.191580 -0.000000 0.453326 0.407564 -0.367938
0.185000 100.604284 187.145110 -0.000000 0.152789 0.240478 -0.124286 -52.543655 104.349865 -0.000000 0.453326 0.407539 -0.367956
0.190000 100.565812 187.215072 -0.000000 0.152756 0.240512 -0.124284 -52.553003 104.470534 -0.000000 0.453341 0.407511 -0.367944
0.195000 100.531148 187.295836 -0.000000 0.152736 0.240556 -0.124272 -52.568983 104.536003 -0.000000 0.453352 0.407473 -0.367950
0.200000 100.515522 187.401925 -0.000000 0.152728 0.240600 -0.124269 -52.584967 104.548172 -0.000000 0.453387 0.407450 -0.367948
0.205000 100.557178 187.492076 -0.000000 0.152728 0.240666 -0.124252 -52.545755 104.540357 -0.000000 0.453412 0.407361 -0.367943
0.210000 100.584779 187.546454 -0.000000 0.152693 0.240740 -0.124257 -52.443878 104.526626 -0.000000 0.453443 0.407309 -0.367949
0.215000 100.564342 187.529271 -0.000000 0.152658 0.240791 -0.124266 -52.281431 104.519456 -0.000000 0.453470 0.407249 -0.367937
0.220000 100.493414 187.418197 -0.000000 0.152618 0.240854 -0.124256 -52.081097 104.520691 -0.000000 0.453508 0.407194 -0.367919
0.225000 100.372954 187.219627 -0.000000 0.152578 0.240950 -0.124257 -51.875054 104.526045 -0.000000 0.453544 0.407131 -0.367904
0.230000 100.167795 186.983380 -0.000000 0.152544 0.240987 -0.124258 -51.715690 104.519159 -0.000000 0.453576 0.407044 -0.367897
0.235000 99.929055 186.731874 -0.000000 0.152502 0.241060 -0.124253 -51.609759 104.501356 -0.000000 0.453618 0.406990 -0.367907
0.240000 99.671837 186.515804 -0.000000 0.152474 0.241093 -0.124256 -51.571882 104.465499 -0.000000 0.453647 0.406930 -0.367902
0.245000 99.473517 186.346780 -0.000000 0.152459 0.241146 -0.124254 -51.556331 104.434555 -0.000000 0.453691 0.406867 -0.367886
0.250000 99.349129 186.251697 -0.000000 0.152435 0.241202 -0.124263 -51.541327 104.425121 -0.000000 0.453707 0.406805 -0.367892
0.255000 99.296730 186.242883 -0.000000 0.152435 0.241237 -0.124250 -51.520707 104.453329 -0.000000 0.453730 0.406757 -0.367899
0.260000 99.356434 186.287077 -0.000000 0.152428 0.241283 -0.124260 -51.471482 104.544719 -0.000000 0.453753 0.406686 -0.367905
0.265000 99.497161 186.373508 -0.000000 0.152430 0.241338 -0.124250 -51.416209 104.692092 -0.000000 0.453784 0.406632 -0.367892
0.270000 99.677490 186.488274 -0.000000 0.152444 0.241367 -0.124248 -51.383022 104.871045 -0.000000 0.453803 0.406592 -0.367901
0.275000 99.889832 186.587571 -0.000000 0.152455 0.241403 -0.124237 -51.364251 105.066917 -0.000000 0.453813 0.406540 -0.367898
0.280000 100.079260 186.645766 -0.000000 0.152451 0.241451 -0.124225 -51.357890 105.262554 -0.000000 0.453831 0.406489 -0.367885
0.285000 100.171117 186.664695 -0.000000 0.152453 0.241486 -0.124222 -51.376240 105.437848 -0.000000 0.453844 0.406460 -0.367897
0.290000 100.199083 186.623058 -0.000000 0.152431 0.241535 -0.124251 -51.401604 105.591224 -0.000000 0.453851 0.406404 -0.367902
0.295000 100.131420 186.557647 -0.000000 0.152405 0.241560 -0.124259 -51.480942 105.690659 -0.000000 0.453855 0.406382 -0.367905
0.300000 100.044240 186.446104 -0.000000 0.152402 0.241599 -0.124259 -51.600371 105.732797 -0.000000 0.453871 0.406321 -0.367901
0.305000 99.939114 186.304801 -0.000000 0.152376 0.241626 -0.124264 -51.772310 105.703539 -0.000000 0.453890 0.406261 -0.367913
0.310000 99.836713 186.153605 -0.000000 0.152364 0.241668 -0.124265 -51.988960 105.605582 -0.000000 0.453913 0.406227 -0.367914
0.315000 99.782362 186.009777 -0.000000 0.152370 0.241703 -0.124264 -52.233216 105.453046 -0.000000 0.453929 0.406168 -0.367906
0.320000 99.806856 185.893471 -0.000000 0.152373 0.241751 -0.124228 -52.505552 105.255125 -0.000000 0.453959 0.406129 -0.367883
0.325000 99.933458 185.811583 -0.000000 0.152341 0.241783 -0.124210 -52.804087 105.025537 -0.000000 0.454001 0.406081 -0.367885
0.330000 100.167837 185.752513 -0.000000 0.152336 0.241888 -0.124201 -53.102924 104.792675 -0.000000 0.454037 0.406018 -0.367891
0.335000 100.407661 185.736433 -0.000000 0.152321 0.241927 -0.124194 -53.400660 104.570040 -0.000000 0.454082 0.405956 -0.367884
0.340000 100.640704 185.730939 -0.000000 0.152277 0.241973 -0.124202 -53.639321 104.391976 -0.000000 0.454122 0.405899 -0.367888
0.345000 100.842709 185.729132 -0.000000 0.152241 0.242027 -0.124227 -53.790820 104.267509 -0.000000 0.454171 0.405837 -0.367892
0.350000 101.000168 185.738249 -0.000000 0.152208 0.242080 -0.124228 -53.850311 104.184439 -0.000000 0.454204 0.405784 -0.367887
0.355000 101.130507 185.758754 -0.000000 0.152192 0.242145 -0.124225 -53.818188 104.128104 -0.000000 0.454243 0.405746 -0.367906
0.360000 101.279667 185.782742 -0.000000 0.152180 0.242238 -0.124219 -53.694062 104.098984 -0.000000 0.454285 0.405685 -0.367900
0.365000 101.431376 185.832213 -0.000000 0.152188 0.242307 -0.124226 -53.515478 104.094967 -0.000000 0.454335 0.405614 -0.367910
0.370000 101.567145 185.907815 -0.000000 0.152189 0.242349 -0.124208 -53.313893 104.121362 -0.000000 0.454367 0.405566 -0.367900
0.375000 101.693760 185.975848 -0.000000 0.152194 0.242391 -0.124199 -53.106577 104.182436 -0.000000 0.454391 0.405515 -0.367901
0.380000 101.784689 186.018031 -0.000000 0.152183 0.242444 -0.124196 -52.940418 104.259319 -0.000000 0.454405 0.405484 -0.367893
0.385000 101.818824 186.022054 -0.000000 0.152162 0.242471 -0.124194 -52.859605 104.335937 -0.000000 0.454418 0.405433 -0.367891
0.390000 101.780309 185.984505 -0.000000 0.152135 0.242502 -0.124205 -52.872456 104.417676 -0.000000 0.454413 0.405368 -0.367897
0.395000 101.631536 185.926987 -0.000000 0.152113 0.242516 -0.124234 -52.951368 104.522837 -0.000000 0.454408 0.405332 -0.367902
0.400000 101.396932 185.851840 -0.000000 0.152096 0.242534 -0.124239 -53.019918 104.682064 -0.000000 0.454404 0.405325 -0.367892
0.405000 101.136176 185.751150 -0.000000 0.152085 0.242547 -0.124248 -53.011841 104.909141 -0.000000 0.454390 0.405284 -0.367897
0.410000 100.856685 185.650288 -0.000000 0.152080 0.242547 -0.124264 -52.933851 105.175063 -0.000000 0.454384 0.405288 -0.367909
0.415000 100.643002 185.543432 -0.000000 0.152075 0.242563 -0.124270 -52.787701 105.451864 -0.000000 0.454371 0.405274 -0.367909
0.420000 100.482102 185.481641 -0.000000 0.152091 0.242564 -0.124267 -52.650360 105.669754 -0.000000 0.454348 0.405283 -0.367907
0.425000 100.414990 185.466550 -0.000000 0.152094 0.242570 -0.124268 -52.549190 105.779230 -0.000000 0.454351 0.405288 -0.367910
